<?xml version="1.0" standalone="no"?>
<!DOCTYPE svg PUBLIC "-//W3C//DTD SVG 20010904//EN"
 "http://www.w3.org/TR/2001/REC-SVG-20010904/DTD/svg10.dtd">
<svg version="1.0" xmlns="http://www.w3.org/2000/svg"
 width="260.000000pt" height="260.000000pt" viewBox="0 0 260.000000 260.000000"
 preserveAspectRatio="xMidYMid meet">
<metadata>
Created by potrace 1.14, written by Peter Selinger 2001-2017
</metadata>
<g transform="translate(0.000000,260.000000) scale(0.100000,-0.100000)"
fill="#000000" stroke="none">
<path d="M1193 2578 c3 -13 7 -56 8 -97 l2 -73 -39 -37 c-147 -137 -268 -398
-315 -680 -11 -69 -22 -128 -24 -131 -4 -7 -146 -9 -567 -10 l-258 0 0 -168 0
-168 108 -91 c59 -50 139 -114 177 -143 39 -29 98 -76 132 -104 34 -28 101
-80 149 -116 48 -36 92 -70 98 -75 6 -6 44 -37 84 -68 l72 -58 2 -92 c1 -51 3
-110 4 -132 2 -22 3 -106 3 -187 l1 -148 125 0 c119 0 137 4 116 26 -17 17
-101 183 -101 199 0 8 -4 15 -8 15 -4 0 -13 14 -19 30 -6 17 -7 28 -2 24 5 -3
9 -1 9 5 0 6 7 8 15 5 8 -4 15 -1 15 5 0 6 -11 11 -24 11 -28 0 -40 25 -30 64
4 16 1 33 -7 44 -12 15 -12 16 2 5 9 -7 19 -10 23 -6 4 4 4 0 0 -10 -4 -13 -1
-17 14 -17 11 0 23 5 25 10 3 6 4 5 3 -2 -3 -14 30 -48 46 -48 5 0 7 -4 4 -9
-7 -11 15 -39 34 -43 16 -3 60 -48 60 -60 0 -4 7 -4 17 -1 10 4 14 2 10 -4 -6
-10 20 -40 32 -37 3 1 5 -2 4 -7 -2 -4 13 -25 32 -46 31 -34 35 -44 35 -95 l0
-58 35 0 35 0 0 83 c0 90 13 160 30 165 5 2 7 9 4 14 -4 7 -2 8 4 4 6 -3 14 0
19 7 4 8 35 32 68 53 33 22 89 60 125 85 36 25 71 48 78 53 8 5 15 -1 21 -16
10 -27 3 -46 -11 -27 -7 10 -8 8 -3 -6 19 -50 18 -66 -1 -59 -14 4 -15 3 -5
-4 22 -16 -45 -193 -115 -304 -13 -21 -24 -40 -24 -43 0 -3 57 -5 126 -5 l126
0 -4 248 c-3 136 -8 254 -12 263 -6 13 18 37 101 104 59 47 151 116 203 151
99 67 284 201 338 244 17 14 69 54 116 90 l86 65 0 212 0 212 -407 -2 -406 -2
-14 60 c-30 133 -87 304 -123 372 -73 136 -202 286 -311 360 l-45 31 -14 96
-14 96 -39 0 c-36 0 -39 -2 -34 -22z m186 -315 c39 -42 71 -85 71 -95 0 -10 6
-18 14 -18 24 0 54 -48 67 -107 6 -31 18 -75 26 -97 27 -74 40 -144 36 -193
-3 -36 1 -56 16 -81 20 -31 21 -31 41 -15 11 10 20 27 20 38 1 18 1 19 11 2 5
-9 9 -38 7 -64 -3 -41 -7 -49 -38 -66 -22 -12 -36 -15 -38 -8 -6 17 -20 13
-25 -6 -3 -11 -5 -7 -6 10 -1 18 4 27 14 27 8 0 15 5 15 10 0 6 -5 9 -11 8 -5
-2 -24 16 -42 40 -27 37 -29 46 -19 62 19 31 15 50 -10 47 -19 -2 -23 5 -29
38 -5 22 -8 72 -9 110 0 39 -7 92 -15 119 -8 28 -13 57 -10 65 2 9 1 22 -4 30
-10 15 -31 7 -31 -13 0 -22 -31 -76 -40 -71 -5 3 -7 20 -3 37 4 21 3 29 -5 24
-7 -4 -14 7 -18 31 -5 25 -3 38 5 41 6 2 11 12 11 23 0 10 4 19 9 19 6 0 6
-12 0 -32 -12 -45 -11 -56 5 -36 7 10 16 14 21 10 4 -4 4 8 0 26 -8 41 -85
124 -85 93 0 -27 -19 -37 -27 -14 -4 10 -10 20 -14 23 -7 5 -12 27 -10 48 2
28 33 8 100 -65z m-143 7 c13 0 28 -9 34 -20 7 -14 7 -20 0 -20 -5 0 -10 -23
-10 -51 0 -53 -35 -143 -52 -133 -11 7 -10 54 2 54 12 0 2 53 -21 108 -21 48
-36 54 -45 17 -8 -30 -24 -33 -24 -4 0 12 16 37 36 57 37 37 37 37 47 14 6
-13 19 -22 33 -22z m135 -43 c-1 -12 -15 -9 -19 4 -3 6 1 10 8 8 6 -3 11 -8
11 -12z m-273 -36 c-2 -5 5 -16 15 -23 10 -7 19 -25 19 -38 1 -14 6 -28 10
-31 5 -3 6 -13 3 -22 -11 -27 -33 -8 -40 34 -6 34 -9 38 -26 29 -24 -13 -26 6
-3 38 16 23 26 29 22 13z m235 -48 c3 -16 9 -40 12 -54 7 -25 5 -27 -27 -24
-32 2 -33 4 -33 46 0 35 3 44 17 43 11 -1 14 4 11 14 -4 9 -2 13 4 9 6 -4 13
-19 16 -34z m-287 -55 c-9 -12 -16 -19 -16 -15 0 11 24 47 28 42 2 -2 -3 -14
-12 -27z m32 -57 c2 -6 1 -19 -2 -28 -6 -14 -9 -13 -22 6 -13 17 -19 20 -30
10 -10 -8 -11 -15 -4 -24 7 -8 4 -17 -10 -30 -11 -10 -20 -31 -20 -46 0 -32
-17 -48 -26 -24 -8 20 34 133 53 144 20 11 56 7 61 -8z m222 -24 c0 -8 9 -22
20 -32 20 -18 28 -51 10 -40 -5 3 -10 3 -10 -2 0 -4 -11 -8 -25 -8 -21 0 -25
5 -25 32 0 37 9 63 21 63 5 0 9 -6 9 -13z m-78 -44 c5 -26 -3 -73 -12 -73 -12
0 -20 42 -13 68 6 26 20 29 25 5z m-162 -12 c0 -9 5 -22 11 -28 14 -14 23
-152 11 -183 -7 -19 -5 -31 11 -52 19 -25 19 -31 7 -67 -21 -66 -1 -138 36
-124 18 7 74 -25 74 -42 0 -8 -6 -15 -14 -15 -27 0 -25 -29 2 -51 l27 -21 6
64 c4 34 7 118 8 185 1 109 16 272 27 282 2 2 10 -1 17 -7 8 -7 17 -9 20 -5 4
3 7 -1 7 -10 0 -9 5 -17 10 -17 6 0 10 7 10 15 0 20 13 19 34 -4 13 -14 16
-34 14 -85 -1 -48 2 -70 12 -76 11 -7 11 -11 -3 -24 -18 -19 -22 -15 -31 38
-5 26 -10 35 -16 26 -6 -9 -12 -6 -25 14 -10 14 -25 26 -34 25 -10 0 -11 -2
-3 -6 6 -2 12 -14 12 -24 0 -11 4 -18 9 -15 5 3 12 -1 15 -10 10 -25 7 -34 -9
-28 -12 5 -15 -3 -15 -42 0 -54 -16 -50 -23 6 -3 24 -4 18 -5 -22 -1 -31 3
-60 8 -63 6 -3 10 -2 10 4 0 6 6 8 13 5 9 -3 13 6 14 31 1 20 3 39 6 42 10 10
29 -9 43 -43 19 -44 44 -45 44 -1 0 17 5 39 10 47 8 13 11 12 25 -5 25 -33 29
-63 11 -90 -9 -14 -15 -29 -12 -33 3 -4 1 -14 -4 -22 -7 -12 -10 -12 -16 3
-16 43 -32 -17 -18 -70 9 -32 21 -29 29 7 8 35 13 37 31 13 11 -17 13 -16 23
10 12 31 19 88 20 152 1 48 12 37 34 -34 28 -90 28 -90 -85 -164 -97 -63 -126
-76 -99 -43 10 12 7 24 -15 62 -15 26 -30 42 -32 36 -2 -7 -10 -12 -18 -12 -7
0 -16 -12 -19 -27 -4 -16 -10 -35 -14 -43 -9 -19 -3 -50 10 -50 6 0 7 -5 3
-11 -4 -8 1 -9 17 -5 21 6 22 5 6 -4 -14 -9 -28 -5 -72 24 -29 20 -61 39 -69
42 -9 3 -16 15 -16 25 0 10 -4 19 -10 19 -5 0 -10 -5 -10 -11 0 -6 -14 3 -31
20 -17 18 -27 36 -23 42 4 8 3 9 -4 5 -7 -4 -12 -3 -12 3 0 5 -11 8 -24 5 -16
-3 -38 7 -71 34 l-47 37 6 67 c6 79 18 108 44 101 23 -6 45 -40 32 -48 -6 -3
-10 -17 -10 -31 0 -20 4 -24 19 -19 25 8 33 -7 21 -39 -10 -26 4 -85 17 -72 3
3 15 -1 25 -11 17 -15 18 -14 18 30 0 25 -5 49 -10 52 -13 8 -11 155 1 155 5
0 9 7 9 15 0 8 -9 15 -20 15 -11 0 -20 4 -20 9 0 5 -7 17 -16 26 -15 14 -15
18 -1 33 17 20 34 88 20 79 -5 -4 -10 0 -10 6 0 7 9 14 19 14 11 1 18 -5 18
-16z m554 -21 l7 -25 -15 25 c-17 28 -21 50 -7 35 5 -6 12 -21 15 -35z m-624
-89 c0 -16 -18 -31 -36 -31 -2 0 -4 16 -4 35 0 33 2 35 20 25 11 -6 20 -19 20
-29z m447 -53 c-3 -8 -6 -5 -6 6 -1 11 2 17 5 13 3 -3 4 -12 1 -19z m-410 -40
c-3 -8 -6 -5 -6 6 -1 11 2 17 5 13 3 -3 4 -12 1 -19z m491 -51 c-7 -14 -13
-17 -16 -9 -6 19 6 44 18 37 7 -4 6 -14 -2 -28z m-324 -62 c7 -20 -3 -45 -19
-45 -13 0 -25 21 -25 46 0 19 36 18 44 -1z m1351 -106 c4 -6 -2 -20 -13 -32
-11 -12 -18 -27 -15 -34 2 -6 -4 -13 -14 -16 -16 -4 -15 -6 5 -12 25 -8 29
-35 10 -65 -10 -16 -10 -24 0 -41 35 -56 3 -162 -60 -200 -22 -13 -46 -30 -53
-37 -11 -10 -14 -9 -12 8 1 11 7 20 14 20 21 0 26 21 7 35 -29 22 -47 18 -71
-17 -16 -22 -19 -34 -11 -39 8 -5 7 -12 -5 -23 -9 -9 -14 -23 -11 -30 3 -7 -2
-16 -10 -19 -12 -5 -14 0 -9 23 3 19 1 30 -6 30 -9 0 -15 -17 -13 -40 0 -3 -7
-16 -17 -28 -17 -23 -51 -22 -51 0 0 6 6 5 15 -2 15 -13 19 -8 15 23 -1 10 4
24 10 32 6 8 9 24 5 35 -5 16 4 36 39 81 48 61 55 83 33 92 -14 5 -15 29 -2
60 6 14 14 17 36 12 17 -4 29 -2 29 4 0 5 5 22 10 36 9 23 13 25 25 15 12 -10
15 -10 15 0 0 7 8 19 18 26 16 13 16 15 -2 29 -26 20 -31 57 -9 72 21 16 89
17 98 2z m-145 -39 c0 -13 -28 -25 -38 -16 -3 4 0 11 8 16 20 13 30 12 30 0z
m-2146 -22 c-6 -10 -4 -10 8 0 13 10 19 10 31 -3 9 -8 20 -15 24 -15 14 0 53
-39 53 -53 0 -7 -4 -6 -10 3 -5 8 -10 10 -10 5 0 -18 -44 -38 -87 -41 -41 -3
-43 -2 -43 26 0 15 -5 30 -11 32 -18 6 12 58 33 58 13 0 17 -4 12 -12z m966
-69 c0 -6 -4 -7 -10 -4 -5 3 -10 11 -10 16 0 6 5 7 10 4 6 -3 10 -11 10 -16z
m1048 -15 c-23 -53 -69 -84 -94 -63 -8 6 -15 9 -15 5 -1 -3 -2 -10 -3 -15 -2
-18 -15 -23 -32 -13 -14 8 -9 15 37 50 55 42 110 74 116 68 2 -2 -2 -16 -9
-32z m-198 -109 c0 -2 -10 -10 -22 -16 -21 -11 -22 -11 -9 4 13 16 31 23 31
12z m-1462 -54 c3 -8 -1 -12 -9 -9 -7 2 -15 10 -17 17 -3 8 1 12 9 9 7 -2 15
-10 17 -17z m152 -37 c19 -12 51 -36 70 -52 l35 -30 -21 -21 c-12 -11 -24 -25
-26 -32 -6 -17 -58 -3 -58 16 0 8 -9 15 -20 15 -30 0 -47 43 -33 81 6 16 8 31
3 34 -5 3 -10 0 -12 -7 -3 -7 -7 -2 -10 10 -6 20 -3 22 15 16 12 -4 38 -17 57
-30z m1207 16 c1 -16 -4 -20 -28 -20 -16 0 -29 -4 -29 -10 0 -5 -12 -21 -27
-35 -15 -14 -23 -25 -16 -25 8 0 7 -9 -3 -30 -18 -35 -30 -37 -63 -9 -24 20
-24 20 -5 39 10 10 53 39 94 64 41 25 75 46 75 46 1 0 1 -9 2 -20z m223 9 c0
-6 -9 -8 -20 -4 -21 7 -28 -9 -10 -20 6 -4 10 -23 10 -43 0 -20 0 -48 0 -60 0
-28 -8 -44 -19 -38 -4 3 -18 -4 -29 -15 -20 -18 -22 -18 -22 -2 0 13 -3 14
-12 5 -16 -16 -28 -15 -28 3 0 8 8 15 18 16 12 0 11 3 -6 10 -13 5 -29 6 -35
2 -7 -4 -6 1 2 10 12 15 11 20 -4 37 -10 11 -26 20 -37 20 -10 0 -18 4 -18 8
0 17 12 20 36 7 21 -10 30 -9 64 7 22 11 40 24 40 28 0 5 7 16 16 24 18 18 54
21 54 5z m-1835 -76 c64 -69 60 -110 -10 -109 -35 1 -40 4 -43 26 -2 13 -15
37 -28 53 -27 32 -30 47 -12 65 22 22 48 12 93 -35z m341 -49 c41 -27 78 -79
68 -96 -3 -5 -17 -7 -30 -4 -26 7 -29 0 -25 -60 4 -53 -53 -77 -97 -39 -23 20
-26 30 -26 79 1 59 21 96 53 96 10 0 12 3 5 8 -6 4 -13 15 -17 25 -10 26 22
22 69 -9z m621 -16 c-3 -8 -6 -5 -6 6 -1 11 2 17 5 13 3 -3 4 -12 1 -19z m635
-51 c-19 -19 -24 -20 -32 -7 -13 20 27 57 44 40 7 -7 3 -17 -12 -33z m193 3
c3 -5 1 -10 -4 -10 -6 0 -11 5 -11 10 0 6 2 10 4 10 3 0 8 -4 11 -10z m-1190
-20 c3 -5 2 -10 -4 -10 -5 0 -13 5 -16 10 -3 6 -2 10 4 10 5 0 13 -4 16 -10z
m699 -6 c8 -3 13 -11 10 -18 -3 -7 2 -18 10 -25 7 -6 12 -21 9 -31 -3 -11 -1
-20 3 -20 13 0 54 46 54 59 0 6 16 11 35 11 40 0 62 -26 72 -83 4 -28 1 -37
-15 -46 -24 -13 -81 -4 -83 13 -1 6 0 18 1 26 1 12 -1 13 -11 3 -20 -19 -57
-15 -71 7 -7 11 -17 20 -21 20 -12 0 -46 42 -47 57 0 7 8 17 18 22 21 13 17
12 36 5z m-624 -62 c0 -7 -11 -2 -25 12 -33 33 -33 55 0 25 13 -13 25 -30 25
-37z m1170 22 c0 -8 -4 -14 -10 -14 -5 0 -10 9 -10 21 0 11 5 17 10 14 6 -3
10 -13 10 -21z m-1197 -20 c3 -4 -4 -15 -16 -25 l-22 -19 33 5 c24 4 31 2 26
-6 -3 -6 -2 -14 4 -18 6 -4 7 -12 3 -20 -7 -10 -15 -10 -42 5 -51 26 -61 44
-35 66 22 18 38 22 49 12z m67 -34 c0 -5 -4 -10 -10 -10 -5 0 -10 5 -10 10 0
6 5 10 10 10 6 0 10 -4 10 -10z m991 -10 c27 -15 24 -42 -8 -65 -15 -11 -43
-35 -62 -53 -33 -30 -110 -78 -115 -70 -1 2 -7 10 -14 20 -11 14 -7 22 27 54
23 20 41 46 41 56 0 48 82 84 131 58z m-828 -58 c14 -12 17 -32 17 -99 0 -76
-2 -85 -20 -90 -23 -6 -27 -33 -5 -33 8 0 15 -4 15 -10 0 -14 -28 -12 -32 2
-3 7 -18 13 -34 13 -26 2 -29 5 -32 38 -2 28 1 37 12 37 34 0 0 44 -39 52 -11
2 -27 18 -36 36 -8 19 -21 37 -27 41 -7 4 -10 15 -7 24 6 14 10 13 41 -5 28
-17 34 -17 34 -5 0 9 12 20 28 25 28 10 52 3 85 -26z m-619 -12 c7 0 18 -12
24 -26 l12 -25 -31 18 c-38 23 -63 50 -36 40 10 -4 24 -7 31 -7z m271 -107
c-13 -19 -14 -27 -4 -39 9 -11 7 -14 -10 -14 -12 0 -19 -4 -16 -10 3 -5 3 -10
-2 -10 -20 1 -29 18 -28 53 1 20 -2 37 -7 37 -4 0 -8 -4 -8 -9 0 -6 -17 -7
-37 -5 -29 4 -34 3 -23 -5 13 -9 13 -11 -2 -11 -24 0 -30 15 -22 56 5 30 14
39 48 55 l41 19 43 -46 c41 -45 42 -47 27 -71z m95 83 c0 -2 -8 -10 -17 -17
-16 -13 -17 -12 -4 4 13 16 21 21 21 13z m496 -23 c-3 -8 -6 -20 -6 -27 0 -7
-13 -13 -30 -13 -35 0 -40 21 -12 47 20 20 56 14 48 -7z m-338 -66 c2 -10 -3
-17 -12 -17 -18 0 -29 16 -21 31 9 14 29 6 33 -14z m-101 -14 c19 -1 32 2 30
9 -1 6 5 13 13 16 8 2 12 1 8 -3 -4 -5 -3 -15 4 -22 9 -11 9 -16 0 -22 -7 -4
-10 -15 -7 -24 9 -23 -12 -57 -36 -57 -11 0 -34 -7 -50 -16 -24 -12 -34 -13
-45 -3 -8 7 -14 7 -14 1 0 -5 12 -18 28 -28 15 -9 41 -32 58 -51 17 -18 36
-33 42 -33 7 0 12 -7 12 -16 0 -14 -3 -14 -17 -3 -30 22 -163 153 -163 160 0
4 11 10 25 13 19 5 25 13 25 32 0 17 7 28 19 31 13 3 17 11 14 26 -4 19 -3 20
9 7 7 -8 28 -16 45 -17z m736 -45 c5 -15 -38 -58 -58 -58 -8 0 -29 -16 -48
-36 -20 -21 -41 -35 -51 -33 -16 4 -15 8 6 39 14 20 23 40 21 46 -2 6 9 17 24
24 61 31 99 37 106 18z m-520 -124 c8 -46 -7 -74 -38 -74 -25 0 -39 -24 -40
-70 0 -20 5 -25 23 -24 12 0 29 9 37 20 14 17 15 15 13 -35 -2 -30 -8 -56 -14
-58 -6 -2 -42 26 -78 63 -49 47 -66 71 -61 82 6 14 8 13 16 -7 8 -19 12 -21
24 -11 8 7 15 18 15 25 0 8 6 15 13 18 9 3 9 7 -2 20 -11 14 -11 20 -1 32 7 8
18 15 24 15 6 0 20 11 31 24 25 29 31 26 38 -20z m-203 -4 c0 -5 -2 -10 -4
-10 -3 0 -8 5 -11 10 -3 6 -1 10 4 10 6 0 11 -4 11 -10z m670 -395 c0 -24 -4
-46 -9 -49 -11 -7 -23 67 -15 88 11 28 24 6 24 -39z"/>
<path d="M1015 1860 c-3 -5 -1 -10 4 -10 6 0 11 5 11 10 0 6 -2 10 -4 10 -3 0
-8 -4 -11 -10z"/>
<path d="M920 1648 c0 -7 5 -20 10 -28 8 -12 10 -9 10 13 0 15 -4 27 -10 27
-5 0 -10 -6 -10 -12z"/>
<path d="M738 2533 c7 -3 16 -2 19 1 4 3 -2 6 -13 5 -11 0 -14 -3 -6 -6z"/>
<path d="M25 2450 c3 -5 8 -10 11 -10 2 0 4 5 4 10 0 6 -5 10 -11 10 -5 0 -7
-4 -4 -10z"/>
<path d="M311 1903 c0 -4 4 -17 9 -28 8 -19 9 -19 9 2 1 12 -3 25 -9 28 -5 3
-10 3 -9 -2z"/>
<path d="M1639 433 c-13 -16 -12 -17 4 -4 16 13 21 21 13 21 -2 0 -10 -8 -17
-17z"/>
</g>
</svg>
